<svg width="32" height="32" fill="none" xmlns="http://www.w3.org/2000/svg"><path d="M14.374 16.46h3.252v8.7h-3.252v-8.7z" fill="url(#paint0_linear)"/><path d="M17.851 25.386h-3.702v-9.15h3.703l-.001 9.15zm-3.252-.45H17.4v-8.248h-2.8v8.247z" fill="url(#paint1_linear)"/><path d="M4.001 16.46H7.3v8.7H4.001v-8.7z" fill="url(#paint2_linear)"/><path d="M7.524 25.386H3.776v-9.15h3.748v9.15zm-3.297-.45h2.846v-8.248H4.227v8.247z" fill="url(#paint3_linear)"/><path d="M18.62 15.43v-1.99h-5.24v1.99c0 .042.034.076.076.076h5.087a.077.077 0 00.077-.077z" fill="url(#paint4_linear)"/><path d="M18.543 15.73h-5.086a.302.302 0 01-.302-.302v-2.213h5.69v2.215a.302.302 0 01-.302.3zm-4.937-.45h4.789v-1.614h-4.79v1.614z" fill="url(#paint5_linear)"/><path d="M18.62 26.193a.077.077 0 00-.077-.076h-5.086a.077.077 0 00-.077.076v1.988h5.24v-1.988z" fill="url(#paint6_linear)"/><path d="M18.845 28.407h-5.69v-2.213c0-.167.136-.302.302-.302h5.086c.167 0 .302.135.302.302v2.213zm-5.24-.45h4.79v-1.615h-4.79v1.614z" fill="url(#paint7_linear)"/><path d="M25.196 16.46h3.263v8.7h-3.263v-8.7z" fill="url(#paint8_linear)"/><path d="M28.685 25.386H24.97v-9.15h3.714l.002 9.15zm-3.263-.45h2.813v-8.248H25.42l.002 8.247z" fill="url(#paint9_linear)"/><path d="M28.935 26.117h-4.65a.077.077 0 00-.078.076v1.988h5.24v-1.988a.077.077 0 00-.076-.076h-.436z" fill="url(#paint10_linear)"/><path d="M29.673 28.407h-5.69v-2.213c0-.167.135-.302.302-.302h5.086c.167 0 .302.135.302.302v2.213zm-5.24-.45h4.79v-1.615h-4.79v1.614z" fill="url(#paint11_linear)"/><path d="M8.27 26.193a.077.077 0 00-.076-.076H3.107a.077.077 0 00-.076.076v1.988h5.24v-1.988z" fill="url(#paint12_linear)"/><path d="M8.495 28.407h-5.69v-2.213c0-.167.135-.302.302-.302h5.086c.167 0 .302.135.302.302v2.213zm-5.24-.45h4.79v-1.615h-4.79v1.614z" fill="url(#paint13_linear)"/><path d="M23.73 29.138H.226v2.611h31.549v-2.611H23.73z" fill="url(#paint14_linear)"/><path d="M32 31.975H0v-3.062h32v3.062zm-31.55-.45h31.1v-2.162H.45v2.162z" fill="url(#paint15_linear)"/><path d="M3.107 15.505h5.087a.077.077 0 00.076-.077V13.44H3.03v1.99a.077.077 0 00.077.075z" fill="url(#paint16_linear)"/><path d="M8.193 15.73H3.107a.302.302 0 01-.302-.302v-2.213h5.69v2.215a.302.302 0 01-.302.3zm-4.937-.45h4.789v-1.614h-4.79v1.614z" fill="url(#paint17_linear)"/><path d="M24.208 15.43c0 .042.034.076.077.076h5.086a.077.077 0 00.077-.077v-1.99h-5.24v1.99z" fill="url(#paint18_linear)"/><path d="M29.371 15.73h-5.086a.302.302 0 01-.302-.302v-2.213h5.69v2.215c0 .166-.136.3-.302.3zm-4.937-.45h4.788v-1.614h-4.788v1.614z" fill="url(#paint19_linear)"/><path d="M15.995.281L.315 9.746v2.739h31.37V9.746L15.995.281zM16 9.91a2.858 2.858 0 110-5.717 2.858 2.858 0 010 5.717z" fill="url(#paint20_linear)"/><path fill-rule="evenodd" clip-rule="evenodd" d="M15.995.025l15.909 9.597v3.082H.096V9.622L15.995.025zm0 .512L.535 9.87v2.396h30.93V9.87L15.995.537zM16 4.411a2.64 2.64 0 100 5.279 2.64 2.64 0 000-5.279zm0 5.497v.22a3.077 3.077 0 100-6.155 3.077 3.077 0 000 6.155v-.22z" fill="url(#paint21_linear)"/><defs><linearGradient id="paint0_linear" x1="14.374" y1="16.461" x2="20.08" y2="18.594" gradientUnits="userSpaceOnUse"><stop offset="0" stop-color="#B2843B"/><stop offset=".383" stop-color="#EAD267"/><stop offset=".503" stop-color="#F4E38F"/><stop offset=".621" stop-color="#EAD267"/><stop offset="1" stop-color="#B2843B"/></linearGradient><linearGradient id="paint1_linear" x1="14.149" y1="16.237" x2="20.512" y2="18.812" gradientUnits="userSpaceOnUse"><stop offset="0" stop-color="#B2843B"/><stop offset=".383" stop-color="#EAD267"/><stop offset=".503" stop-color="#F4E38F"/><stop offset=".621" stop-color="#EAD267"/><stop offset="1" stop-color="#B2843B"/></linearGradient><linearGradient id="paint2_linear" x1="4.001" y1="16.461" x2="9.768" y2="18.647" gradientUnits="userSpaceOnUse"><stop offset="0" stop-color="#B2843B"/><stop offset=".383" stop-color="#EAD267"/><stop offset=".503" stop-color="#F4E38F"/><stop offset=".621" stop-color="#EAD267"/><stop offset="1" stop-color="#B2843B"/></linearGradient><linearGradient id="paint3_linear" x1="3.776" y1="16.237" x2="10.195" y2="18.866" gradientUnits="userSpaceOnUse"><stop offset="0" stop-color="#B2843B"/><stop offset=".383" stop-color="#EAD267"/><stop offset=".503" stop-color="#F4E38F"/><stop offset=".621" stop-color="#EAD267"/><stop offset="1" stop-color="#B2843B"/></linearGradient><linearGradient id="paint4_linear" x1="13.38" y1="13.44" x2="14.79" y2="17.016" gradientUnits="userSpaceOnUse"><stop offset="0" stop-color="#B2843B"/><stop offset=".383" stop-color="#EAD267"/><stop offset=".503" stop-color="#F4E38F"/><stop offset=".621" stop-color="#EAD267"/><stop offset="1" stop-color="#B2843B"/></linearGradient><linearGradient id="paint5_linear" x1="13.155" y1="13.215" x2="15.015" y2="17.423" gradientUnits="userSpaceOnUse"><stop offset="0" stop-color="#B2843B"/><stop offset=".383" stop-color="#EAD267"/><stop offset=".503" stop-color="#F4E38F"/><stop offset=".621" stop-color="#EAD267"/><stop offset="1" stop-color="#B2843B"/></linearGradient><linearGradient id="paint6_linear" x1="13.38" y1="26.117" x2="14.788" y2="29.691" gradientUnits="userSpaceOnUse"><stop offset="0" stop-color="#B2843B"/><stop offset=".383" stop-color="#EAD267"/><stop offset=".503" stop-color="#F4E38F"/><stop offset=".621" stop-color="#EAD267"/><stop offset="1" stop-color="#B2843B"/></linearGradient><linearGradient id="paint7_linear" x1="13.155" y1="25.892" x2="15.016" y2="30.1" gradientUnits="userSpaceOnUse"><stop offset="0" stop-color="#B2843B"/><stop offset=".383" stop-color="#EAD267"/><stop offset=".503" stop-color="#F4E38F"/><stop offset=".621" stop-color="#EAD267"/><stop offset="1" stop-color="#B2843B"/></linearGradient><linearGradient id="paint8_linear" x1="25.196" y1="16.461" x2="30.918" y2="18.607" gradientUnits="userSpaceOnUse"><stop offset="0" stop-color="#B2843B"/><stop offset=".383" stop-color="#EAD267"/><stop offset=".503" stop-color="#F4E38F"/><stop offset=".621" stop-color="#EAD267"/><stop offset="1" stop-color="#B2843B"/></linearGradient><linearGradient id="paint9_linear" x1="24.969" y1="16.237" x2="31.349" y2="18.828" gradientUnits="userSpaceOnUse"><stop offset="0" stop-color="#B2843B"/><stop offset=".383" stop-color="#EAD267"/><stop offset=".503" stop-color="#F4E38F"/><stop offset=".621" stop-color="#EAD267"/><stop offset="1" stop-color="#B2843B"/></linearGradient><linearGradient id="paint10_linear" x1="24.207" y1="26.117" x2="25.616" y2="29.691" gradientUnits="userSpaceOnUse"><stop offset="0" stop-color="#B2843B"/><stop offset=".383" stop-color="#EAD267"/><stop offset=".503" stop-color="#F4E38F"/><stop offset=".621" stop-color="#EAD267"/><stop offset="1" stop-color="#B2843B"/></linearGradient><linearGradient id="paint11_linear" x1="23.983" y1="25.892" x2="25.843" y2="30.1" gradientUnits="userSpaceOnUse"><stop offset="0" stop-color="#B2843B"/><stop offset=".383" stop-color="#EAD267"/><stop offset=".503" stop-color="#F4E38F"/><stop offset=".621" stop-color="#EAD267"/><stop offset="1" stop-color="#B2843B"/></linearGradient><linearGradient id="paint12_linear" x1="3.031" y1="26.117" x2="4.439" y2="29.691" gradientUnits="userSpaceOnUse"><stop offset="0" stop-color="#B2843B"/><stop offset=".383" stop-color="#EAD267"/><stop offset=".503" stop-color="#F4E38F"/><stop offset=".621" stop-color="#EAD267"/><stop offset="1" stop-color="#B2843B"/></linearGradient><linearGradient id="paint13_linear" x1="2.805" y1="25.892" x2="4.666" y2="30.1" gradientUnits="userSpaceOnUse"><stop offset="0" stop-color="#B2843B"/><stop offset=".383" stop-color="#EAD267"/><stop offset=".503" stop-color="#F4E38F"/><stop offset=".621" stop-color="#EAD267"/><stop offset="1" stop-color="#B2843B"/></linearGradient><linearGradient id="paint14_linear" x1=".226" y1="29.138" x2=".655" y2="34.326" gradientUnits="userSpaceOnUse"><stop offset="0" stop-color="#B2843B"/><stop offset=".383" stop-color="#EAD267"/><stop offset=".503" stop-color="#F4E38F"/><stop offset=".621" stop-color="#EAD267"/><stop offset="1" stop-color="#B2843B"/></linearGradient><linearGradient id="paint15_linear" x1="0" y1="28.913" x2=".581" y2="34.982" gradientUnits="userSpaceOnUse"><stop offset="0" stop-color="#B2843B"/><stop offset=".383" stop-color="#EAD267"/><stop offset=".503" stop-color="#F4E38F"/><stop offset=".621" stop-color="#EAD267"/><stop offset="1" stop-color="#B2843B"/></linearGradient><linearGradient id="paint16_linear" x1="3.031" y1="13.44" x2="4.439" y2="17.014" gradientUnits="userSpaceOnUse"><stop offset="0" stop-color="#B2843B"/><stop offset=".383" stop-color="#EAD267"/><stop offset=".503" stop-color="#F4E38F"/><stop offset=".621" stop-color="#EAD267"/><stop offset="1" stop-color="#B2843B"/></linearGradient><linearGradient id="paint17_linear" x1="2.805" y1="13.215" x2="4.666" y2="17.423" gradientUnits="userSpaceOnUse"><stop offset="0" stop-color="#B2843B"/><stop offset=".383" stop-color="#EAD267"/><stop offset=".503" stop-color="#F4E38F"/><stop offset=".621" stop-color="#EAD267"/><stop offset="1" stop-color="#B2843B"/></linearGradient><linearGradient id="paint18_linear" x1="24.208" y1="13.44" x2="25.618" y2="17.016" gradientUnits="userSpaceOnUse"><stop offset="0" stop-color="#B2843B"/><stop offset=".383" stop-color="#EAD267"/><stop offset=".503" stop-color="#F4E38F"/><stop offset=".621" stop-color="#EAD267"/><stop offset="1" stop-color="#B2843B"/></linearGradient><linearGradient id="paint19_linear" x1="23.983" y1="13.215" x2="25.843" y2="17.423" gradientUnits="userSpaceOnUse"><stop offset="0" stop-color="#B2843B"/><stop offset=".383" stop-color="#EAD267"/><stop offset=".503" stop-color="#F4E38F"/><stop offset=".621" stop-color="#EAD267"/><stop offset="1" stop-color="#B2843B"/></linearGradient><linearGradient id="paint20_linear" x1=".315" y1=".281" x2="8.563" y2="21.48" gradientUnits="userSpaceOnUse"><stop offset="0" stop-color="#B2843B"/><stop offset=".383" stop-color="#EAD267"/><stop offset=".503" stop-color="#F4E38F"/><stop offset=".621" stop-color="#EAD267"/><stop offset="1" stop-color="#B2843B"/></linearGradient><linearGradient id="paint21_linear" x1=".096" y1=".025" x2="8.818" y2="21.906" gradientUnits="userSpaceOnUse"><stop offset="0" stop-color="#B2843B"/><stop offset=".383" stop-color="#EAD267"/><stop offset=".503" stop-color="#F4E38F"/><stop offset=".621" stop-color="#EAD267"/><stop offset="1" stop-color="#B2843B"/></linearGradient></defs></svg>