<svg width="32" height="32" fill="none" xmlns="http://www.w3.org/2000/svg"><g clip-path="url(#clip0)"><path d="M22.276 9.051c.105-.3.19-.6.242-.9.938-5.644-1.838-5.84-1.838-5.84s-.463-.886-1.675-1.557c-.815-.482-1.95-.854-3.442-.73a5.2 5.2 0 00-1.369.26 6.076 6.076 0 00-1.505.77 7.856 7.856 0 00-1.551 1.284c-.737.75-1.395 1.727-1.675 2.94-.242.905-.183 1.85.013 2.874.052.3.13.593.24.9-.553-.053-1.212.266-.592 2.45.443 1.597.86 2.04 1.18 2.066.293 1.896 1.753 4.308 4.158 5.155a4.578 4.578 0 003.05-.006c2.366-.854 3.878-3.259 4.171-5.15.32-.025.737-.475 1.186-2.065.62-2.184-.039-2.503-.593-2.45z" fill="url(#paint0_linear)"/><path d="M26.924 20.979c-3.383-.86-6.134-2.796-6.134-2.796l-2.144 6.785-.404 1.277-.007-.02-.352 1.082-1.134-3.213c2.783-3.884-.56-3.845-.75-3.839-.188-.006-3.532-.045-.749 3.84l-1.134 3.212-.352-1.081-.006.019-.404-1.277-2.145-6.785s-2.75 1.935-6.133 2.796c-2.522.639-2.646 3.552-2.542 4.999-.013 0 .137 1.955.28 2.816 0 0 4.928 3.2 13.18 3.206 8.25 0 13.178-3.206 13.178-3.206.15-.86.293-2.816.293-2.816.105-1.44-.02-4.354-2.541-5z" fill="url(#paint1_linear)"/></g><defs><linearGradient id="paint0_linear" x1="8.874" y1="0" x2="27.099" y2="13.679" gradientUnits="userSpaceOnUse"><stop offset="0" stop-color="#B2843B"/><stop offset=".383" stop-color="#EAD267"/><stop offset=".503" stop-color="#F4E38F"/><stop offset=".621" stop-color="#EAD267"/><stop offset="1" stop-color="#B2843B"/></linearGradient><linearGradient id="paint1_linear" x1="2.51" y1="18.183" x2="13.722" y2="40.075" gradientUnits="userSpaceOnUse"><stop offset="0" stop-color="#B2843B"/><stop offset=".383" stop-color="#EAD267"/><stop offset=".503" stop-color="#F4E38F"/><stop offset=".621" stop-color="#EAD267"/><stop offset="1" stop-color="#B2843B"/></linearGradient><clipPath id="clip0"><path fill="#fff" d="M0 0h32v32H0z"/></clipPath></defs></svg>