<svg width="452" height="452" fill="none" xmlns="http://www.w3.org/2000/svg"><path d="M436.924 118.831l.002.003c21.948 53.736 14.301 120.981-25.61 164.658l-.019.022-.019.022c-21.374 24.321-50.73 38.614-80.217 52.972l-1.974.961c-20.067 9.649-39.74 20.064-59.353 30.448l-.02.01c-19.638 10.398-39.217 20.763-59.17 30.356l-.021.01-.02.01c-2.01 1.005-3.675.353-4.235-.207l-1.84-1.842-2.082 1.562c-.916.687-2.185 1.016-3.316.8-.987-.188-2.108-.829-2.889-2.625-8.387-21.135-23.522-35.786-40.801-47.793-8.638-6.003-17.858-11.377-27.074-16.569-2.2-1.239-4.397-2.467-6.586-3.69-7.021-3.923-13.962-7.802-20.667-11.883l-.005-.003c-25.299-15.333-49.577-32.822-67.724-55.504l-.009-.011C1.573 221.287-7.322 170.233 16.648 125.28 40.233 81.862 84 64.782 125.811 68.916c41.891 4.143 81.368 29.532 96.299 70.594l2.734 7.517 2.884-7.461c17.323-44.817 58.794-77.213 101.357-84.73 21.234-3.75 42.643-1.293 61.462 8.784 18.8 10.067 35.249 27.863 46.376 55.211zm-.382 71.383v-.001c1.567-30.956-6.637-65.907-24.702-91.376-18.175-25.624-46.424-41.692-84.326-34.12-50.661 9.508-84.42 49.831-100.036 95.898l-.221.652.085.684c.736 5.884.747 11.795.747 18.675-.258 1.575-1.954 3.129-4.366 3.484-1.144.168-2.04-.026-2.577-.344-.403-.24-.792-.646-.914-1.572v-3.383l-.767-.767-.001-.029v-.029l-.001-.084v-1.973l-.05-.271c-5.882-31.761-21.595-60.369-44.788-78.508-23.28-18.205-53.918-25.709-89.1-15.43l-.012.003-.012.003c-65.957 19.867-90.365 97.602-56.36 153.76 13.375 22.42 31.82 39.254 52.023 53.63 14.193 10.098 29.407 19.081 44.371 27.916 6.253 3.692 12.463 7.358 18.535 11.069 26.014 16.068 47.545 34.054 56.445 62.24l.631 1.997v2.129l.549-.389.307.971 3.494-3.488.589-.589c20.125-14.205 43.986-26.144 68.757-37.99 3.587-1.715 7.193-3.429 10.808-5.147 21.362-10.15 43.053-20.456 63.009-32.214 46.739-27.54 84.728-63.498 87.883-125.407z" fill="url(#paint0_linear)" stroke="#fff" stroke-width="6"/><defs><linearGradient id="paint0_linear" x1="0" y1="50.175" x2="340.854" y2="488.296" gradientUnits="userSpaceOnUse"><stop offset="0" stop-color="#B2843B"/><stop offset=".383" stop-color="#EAD267"/><stop offset=".503" stop-color="#F4E38F"/><stop offset=".621" stop-color="#EAD267"/><stop offset="1" stop-color="#B2843B"/></linearGradient></defs></svg>