<svg width="65" height="64" fill="none" xmlns="http://www.w3.org/2000/svg"><g clip-path="url(#clip0)" fill="#000"><path d="M48.782 42.958c.518 0 .938-.42.938-.938v-1.002a.938.938 0 00-1.875 0v1.002c0 .518.42.938.937.938zm-.937 6.077a.938.938 0 001.875 0v-1.002a.937.937 0 10-1.875 0v1.002z"/><path d="M60.806 44.089h-3.12a8.878 8.878 0 00-.726-2.702l2.704-1.561a.938.938 0 00-.938-1.624l-2.706 1.563a9.028 9.028 0 00-1.977-1.977l1.563-2.706a.937.937 0 10-1.624-.938l-1.561 2.705a8.878 8.878 0 00-2.701-.727v-3.12a.938.938 0 00-1.875 0v3.12c-.953.1-1.861.35-2.702.727l-1.561-2.705a.937.937 0 10-1.624.938l1.563 2.706a9.028 9.028 0 00-1.977 1.977l-2.706-1.563a.938.938 0 10-.938 1.624l2.704 1.561a8.878 8.878 0 00-.726 2.702h-3.12a.938.938 0 000 1.875h3.12c.098.934.343 1.847.723 2.703l-2.7 1.56a.938.938 0 00.937 1.623l3.47-2.004a.937.937 0 00.344-1.28l-.011-.017a7.075 7.075 0 01-.938-3.523 7.087 7.087 0 017.08-7.079 7.087 7.087 0 017.078 7.08 7.087 7.087 0 01-7.079 7.078 7.074 7.074 0 01-3.522-.937l-.017-.012a.937.937 0 00-1.28.343l-2.005 3.472a.937.937 0 101.624.937l1.56-2.701c.855.38 1.768.625 2.703.723v3.12a.937.937 0 101.875 0v-3.12a8.87 8.87 0 002.7-.726l1.562 2.704a.937.937 0 101.624-.938l-1.563-2.706a9.028 9.028 0 001.977-1.977l2.706 1.563a.934.934 0 001.281-.343.938.938 0 00-.343-1.28l-2.704-1.562a8.88 8.88 0 00.726-2.701h3.12a.938.938 0 000-1.875z"/><path d="M52.79 45.964a.938.938 0 000-1.875h-1.002a.937.937 0 100 1.875h1.002zm-8.016 0h1.002a.938.938 0 000-1.875h-1.002a.938.938 0 000 1.875z"/><path d="M64.182 17.11c-6.514-2.792-8.48-8.399-8.498-8.453a.938.938 0 00-.643-.608L32.997 2.037a.936.936 0 00-.494 0L10.46 8.05a.942.942 0 00-.642.606c-.02.056-1.984 5.664-8.499 8.455a.938.938 0 00-.558 1c.042.282 1.075 7.012 5.475 15.813a67.829 67.829 0 009.541 14.256c4.69 5.374 10.239 9.978 16.496 13.686a.936.936 0 00.956 0 69.497 69.497 0 006.1-4.063.937.937 0 00-1.121-1.503 67.488 67.488 0 01-5.457 3.667c-5.876-3.547-11.099-7.913-15.53-12.983A65.93 65.93 0 017.946 33.15c-3.129-6.238-4.699-11.92-5.212-14.622 5.728-2.72 8.045-7.295 8.674-8.794l21.342-5.82 21.341 5.82c.63 1.499 2.945 6.072 8.67 8.791-.387 1.961-1.763 7.883-5.423 15.053a.937.937 0 101.67.853c4.616-9.043 5.688-16.029 5.732-16.322a.938.938 0 00-.558-.999z"/><path d="M49.992 14.848a23.909 23.909 0 005.88 6.493 57.789 57.789 0 01-4.207 10.222.937.937 0 101.659.874c2.409-4.572 3.794-8.616 4.533-11.204a.938.938 0 00-.356-1.02 21.983 21.983 0 01-6.092-6.647.937.937 0 00-.56-.429L33.011 8.273a.933.933 0 00-.262-.037.975.975 0 00-.262.037L14.65 13.138a.937.937 0 00-.56.428 21.984 21.984 0 01-6.094 6.649.937.937 0 00-.356 1.019c1.033 3.617 3.064 9.203 6.882 15.274 4.565 7.26 10.521 13.39 17.703 18.22a.936.936 0 001.047 0c.686-.461 1.37-.941 2.034-1.426a.938.938 0 00-1.107-1.514c-.169.124-.341.247-.513.37V10.4l16.305 4.447zM16.11 35.51c-3.487-5.546-5.435-10.667-6.483-14.168a23.912 23.912 0 005.88-6.494L31.812 10.4v41.757A58.96 58.96 0 0116.11 35.51z"/></g><defs><clipPath id="clip0"><path fill="#fff" transform="translate(.75)" d="M0 0h64v64H0z"/></clipPath></defs></svg>