<svg width="65" height="64" fill="none" xmlns="http://www.w3.org/2000/svg"><path d="M8.218 49.184c.32.042.662.066 1.028.066 1.47 0 3.305-.388 5.519-1.538a.938.938 0 00-.865-1.664c-5 2.598-7.4.635-7.754.303-.646-1.021-1.166-2.063-1.478-3.163-1.96-6.916-.169-10.056 1.727-13.38.96-1.684 1.944-3.408 2.468-5.612.945 1.756 2.387 3.142 4.261 4.068a.937.937 0 00.83-1.681c-4.927-2.434-4.524-7.736-4.462-8.326.808-3.892 3.474-5.268 5.528-7.246.2 2.565 1.53 4.545 3.905 5.78a.937.937 0 00.865-1.664c-5.152-2.677-1.972-9.004-1.834-9.272l.003-.008c1.837-3.007 5.78-4.605 9.816-3.737 2.127.458 3.839 2.42 4.034 4.553-.015.246.02 8.069.02 8.069a13.938 13.938 0 00-2.535-3.53c-2.213-2.223-4.445-2.905-4.538-2.933a.937.937 0 10-.535 1.797c.074.022 7.218 2.268 7.591 12.426l.016 19.846c-.995-1.067-2.576-1.98-5.076-2.04-2.66-.064-6.575 2.264-7.012 2.53a.938.938 0 00.973 1.602c1.058-.642 4.194-2.305 5.995-2.257 4.18.1 4.987 3.15 5.104 4.91.05.392.016 4.9.016 4.9a.938.938 0 101.875 0v-5.09c.162-1.782 1.056-4.624 5.09-4.72 1.787-.04 4.935 1.615 5.994 2.257a.937.937 0 10.973-1.603c-.438-.265-4.346-2.591-7.012-2.529-2.473.059-4.047.953-5.045 2.005V22.104c.488-9.18 6.605-11.737 7.579-12.039a.938.938 0 00-.538-1.796c-.094.028-2.325.71-4.538 2.932a13.92 13.92 0 00-2.503 3.467c-.006-8.116.014-7.596-.013-8.005.196-2.134 1.908-4.096 4.035-4.553 4.036-.868 7.979.73 9.816 3.737l.004.01c.009.016.874 1.705 1.055 3.736.227 2.557-.745 4.419-2.89 5.534a.938.938 0 00.864 1.664c2.376-1.235 3.705-3.215 3.906-5.78.605.582 1.255 1.107 1.89 1.652a.937.937 0 101.22-1.422c-1.502-1.291-2.97-2.355-3.445-4.062C48.722 2.07 43.094-.962 37.331.277c-1.942.417-3.6 1.698-4.581 3.368-.982-1.67-2.639-2.95-4.58-3.368-5.763-1.239-11.392 1.792-12.816 6.902-.99 3.552-6.376 4.367-7.695 10.683l-.01.044c-.79 3.86.778 4.556-2.882 10.973C2.762 32.393.69 36.026 2.865 43.7c.892 3.15 3.216 5.82 5.293 8.394a.937.937 0 101.46-1.178c-.479-.592-.9-1.105-1.4-1.731z" fill="#000"/><path d="M62.635 43.7c2.175-7.674.102-11.307-1.902-14.821-3.656-6.41-2.096-7.116-2.883-10.972l-.007-.035c-.267-1.29-.725-2.444-1.382-3.485a.937.937 0 10-1.585 1.001c.535.847.91 1.797 1.132 2.868.061.589.466 5.892-4.463 8.326a.938.938 0 00.83 1.681c1.874-.925 3.316-2.311 4.262-4.067.524 2.204 1.507 3.928 2.468 5.612 1.896 3.324 3.687 6.464 1.727 13.38-.312 1.1-.834 2.144-1.481 3.167-.32.303-2.715 2.31-7.752-.308a.937.937 0 10-.864 1.664c2.214 1.15 4.05 1.539 5.519 1.539.365 0 .708-.024 1.028-.066-.281.352-.567.705-.857 1.062-3.814 4.696-3.715 5.285-4.388 6.304-.754.066-2.538.14-4.442-.376-3.243-.879-5.243-3.014-5.944-6.348a.937.937 0 10-1.835.386c1.069 5.081 4.554 7.03 7.29 7.771 1.09.296 2.14.424 3.031.468-3.06 2.175-8.057 3.106-11.939 3.637a3.983 3.983 0 01-4.508-3.572c.024-.37.008-.335.013-2.52a.938.938 0 10-1.875 0s-.035 2.265-.018 2.52a3.983 3.983 0 01-4.509 3.572c-3.881-.53-8.878-1.462-11.939-3.637a14.42 14.42 0 003.032-.468c2.736-.74 6.22-2.69 7.29-7.771a.938.938 0 00-1.835-.386c-.697 3.314-2.679 5.445-5.89 6.333-1.912.528-3.733.456-4.498.39-.356-.54-.5-1.002-1.388-2.35a.937.937 0 10-1.566 1.033c1.011 1.533.96 1.799 1.674 2.75l.015.02c2.904 3.84 9.38 5.196 14.851 5.944a5.857 5.857 0 005.702-2.602 5.857 5.857 0 005.703 2.602c5.472-.748 11.947-2.105 14.851-5.945a.716.716 0 00.015-.02c1.115-1.482.484-1.532 4.562-6.553 1.889-2.325 3.936-4.839 4.755-7.728zm-44.382-8.48c-2.144 1.904-6.769 1.272-9.42.356a.937.937 0 00-.614 1.772c3.343 1.16 8.535 1.711 11.28-.726 3.598-3.196 4.313-7.925 3.446-10.11-.75-1.888-3.644-4.951-3.971-5.294a.937.937 0 10-1.356 1.295c.82.858 3.062 3.375 3.584 4.69.568 1.433.07 5.337-2.949 8.017z" fill="#000"/><path d="M47.883 22.513a.938.938 0 00-1.356-1.295c-.328.343-3.222 3.406-3.971 5.294-.867 2.185-.152 6.914 3.446 10.11 1.476 1.312 3.511 1.712 5.448 1.712 2.937 0 5.646-.922 5.831-.986a.937.937 0 00-.614-1.771c-1.804.626-7.011 1.782-9.42-.357-3.018-2.68-3.517-6.584-2.948-8.017.52-1.312 2.764-3.83 3.584-4.69z" fill="#000"/></svg>