<svg width="128" height="96" fill="none" xmlns="http://www.w3.org/2000/svg"><path d="M68.866 27.67c1.11-4.959 2.183-9.936 3.352-14.876.67-2.841 1.398-5.854 2.433-8.6.498-1.354 1.168-2.975 2.586-3.586C78.75-.04 80.474.532 81.24 2.02c.958 1.868.556 5.206.173 7.19-.594 3.184-1.667 6.292-3.123 9.191-1.494 2.994-3.41 5.931-5.42 8.601a52.486 52.486 0 01-3.372 4.024c-.25.267-.517.591-.939.42-.536-.23-.325-.897-.249-1.316.172-.82.364-1.64.556-2.46zM0 96c1.322-9.84 17.47-21.931 23.85-26.642 5.401-3.986 10.975-7.743 16.588-11.442 2.26-1.488 4.54-2.975 6.8-4.463 1.61-1.068 3.238-2.136 4.79-3.28 1.532-1.125 3.084-2.27 4.654-3.356.422-.286.9-.649 1.36-.878.326-.152.824-.705 1.035-.59.192.095.115.82.134 1.182.02.362-.057.762-.134 1.125-.268 1.468-.632 2.937-.958 4.386-1.475 6.293-3.084 12.549-4.54 18.842-.575 2.498-1.015 4.901-1.609 7.552-.21.896-.306.763.556.839 1.532.133 2.624.133 4.559.21.038-.038.057-.076.076-.096.805-.972 1.686-3.242 2.146-4.367 1.934-4.748 3.659-9.554 5.69-14.284.938-2.174 1.666-3.738 2.777-5.702.364-.63.785-1.373 1.379-2.365a94.596 94.596 0 012.145-3.451c.805-1.221 1.667-2.403 2.49-3.3 1.265-1.373 5.843-4.996 7.05-2.326.556 1.22.058 3.165-.383 4.348-.728 1.983-1.954 3.947-3.295 5.569-1.513 1.792-3.352 3.413-5.287 4.748-1.513 1.049-3.084 1.907-4.693 2.765-.67.363-.69.248-.67.954.076 1.545.21 3.128.344 4.672.326 3.738 1.61 7.152 4.215 9.898 6.915 7.323 20.784 7.59 30.113 6.942 7.528-.534 15.133-1.831 22.489-3.528 1.436-.344 2.892-.687 4.329-1.05-1.647.23-3.276.477-4.904.706-4.291.63-8.563 1.297-12.873 1.793-15.918 1.83-36.07 2.174-40.361-17.183-.268-1.182-.345-1.64-.23-1.85.076-.133 2.643-1.583 3.218-2.117a24.06 24.06 0 001.992-1.983 29.62 29.62 0 004.061-5.53c1.111-1.965 2.318-4.615 2.682-6.809.192-1.106.192-2.574-.862-3.28-1.992-1.316-5.9 1.392-7.317 2.937-.843.916-1.725 2.136-2.548 3.357a96.45 96.45 0 00-2.165 3.47c-.594 1.011-1.034 1.755-1.379 2.365-2.299 4.062-4.54 10.108-6.379 14.666-.421 1.049-.843 2.078-1.264 3.127-.077.172-.134.324-.211.496-.134.267-.364.477-.69.381a.65.65 0 01-.268-.171c-.268-.305-.076-.935-.019-1.278.287-1.735.632-3.452.977-5.168 1.494-7.666 3.008-15.371 4.655-22.98.402-1.831.92-4.768 1.973-6.332.383-.553.843-1.068 1.283-1.583a86.987 86.987 0 007.797-10.66c2.663-4.291 5.46-9.63 6.781-14.475.747-2.765 1.226-6.503-.517-9.001C80.014-.212 77.869-.536 75.8.818c-3.582 2.327-6.245 8.849-7.586 12.701-2.47 7.133-3.946 14.59-5.804 21.912-1.34 5.34-2.03 5.664-6.379 8.945a454.865 454.865 0 01-21.723 15.39c-8.39 5.53-16.819 11.919-23.791 19.204C6.82 82.84 2.375 88.18.556 93.273A10.781 10.781 0 000 96z" fill="url(#paint0_linear)"/><defs><linearGradient id="paint0_linear" x1="0" y1="0" x2="92.16" y2="122.88" gradientUnits="userSpaceOnUse"><stop offset="0" stop-color="#B2843B"/><stop offset=".383" stop-color="#EAD267"/><stop offset=".503" stop-color="#F4E38F"/><stop offset=".621" stop-color="#EAD267"/><stop offset="1" stop-color="#B2843B"/></linearGradient></defs></svg>