<svg width="32" height="32" fill="none" xmlns="http://www.w3.org/2000/svg"><path d="M23.414 3.481A9.614 9.614 0 0116 0a9.613 9.613 0 01-7.413 3.481A9.625 9.625 0 013.4 1.966v14.583C3.399 24.143 13.907 30.758 16 32c2.092-1.242 12.601-7.865 12.601-15.45V1.966a9.635 9.635 0 01-5.187 1.514zm-2.44 9.146l-5.935 5.93a.746.746 0 01-1.048 0l-2.96-2.965a.744.744 0 010-1.05.745.745 0 011.05 0l2.437 2.44 5.41-5.405a.742.742 0 111.046 1.05z" fill="url(#paint0_linear)"/><defs><linearGradient id="paint0_linear" x1="3.399" y1="0" x2="34.508" y2="24.501" gradientUnits="userSpaceOnUse"><stop offset="0" stop-color="#B2843B"/><stop offset=".383" stop-color="#EAD267"/><stop offset=".503" stop-color="#F4E38F"/><stop offset=".621" stop-color="#EAD267"/><stop offset="1" stop-color="#B2843B"/></linearGradient></defs></svg>