<svg width="79" height="97" fill="none" xmlns="http://www.w3.org/2000/svg"><path fill-rule="evenodd" clip-rule="evenodd" d="M26.38 96.35h2.566v.544h-3.181v-4.905h3.037v.544H26.38v1.583h2.157v.544H26.38v1.69zm-4.062-1.63c.302.436.603.874.904 1.335h.024a19.13 19.13 0 01-.048-1.454v-2.612h.615v4.905h-.615l-1.964-2.73a32.35 32.35 0 01-.904-1.336h-.024c.036.45.048.97.048 1.56v2.506h-.602v-4.905h.602l1.964 2.73zm-5.145 2.174v-4.905h.614v4.905h-.614zm-4.061-4.905v4.36h2.446v.545h-3.05v-4.905h.604zM9.05 94.72c.302.437.603.875.904 1.336h.024A19.104 19.104 0 019.93 94.6v-2.612h.615v4.905H9.93l-1.964-2.73a32.35 32.35 0 01-.904-1.336h-.024c.036.45.048.97.048 1.56v2.506h-.615v-4.905h.603l1.976 2.73zm-4.374-.272c0 .367-.06.71-.169 1.028-.108.308-.265.58-.47.804a2.2 2.2 0 01-.735.532c-.29.13-.603.189-.964.189-.362 0-.7-.06-.988-.19a2.2 2.2 0 01-.735-.531 2.308 2.308 0 01-.458-.804A3.075 3.075 0 010 94.447c0-.378.06-.72.169-1.028a2.32 2.32 0 01.47-.803c.205-.225.446-.402.735-.52.289-.13.602-.19.964-.19.361 0 .687.06.976.19.29.13.53.295.735.52.205.224.35.496.458.803.109.307.169.65.169 1.028zm48.01-.023c0-.473-.108-.851-.313-1.147-.216-.295-.518-.496-.915-.626a2.258 2.258 0 00-.506-.095 9.95 9.95 0 00-.627-.023h-.47v3.817h.47c.229 0 .446-.012.627-.024.18-.011.349-.047.506-.094.397-.118.699-.331.916-.638.216-.308.313-.698.313-1.17zm.615 0c0 .283-.036.555-.108.803-.072.248-.18.473-.325.686-.145.2-.326.378-.543.52a2.778 2.778 0 01-1.301.437c-.193.024-.41.024-.627.024h-1.133V91.99h1.145c.23 0 .434.012.627.024.193.023.373.047.542.094.29.083.542.19.76.331.216.142.397.32.542.508.144.201.253.414.325.662.06.26.096.532.096.816zM45.3 91.989v4.36h2.446v.545h-3.049v-4.905h.603zm-2.314 2.458c0 .367-.06.71-.169 1.028-.108.308-.265.58-.47.804a2.2 2.2 0 01-.735.532c-.29.13-.602.189-.964.189s-.699-.06-.988-.19a2.2 2.2 0 01-.735-.531 2.31 2.31 0 01-.458-.804 3.074 3.074 0 01-.157-1.028c0-.378.06-.72.169-1.028a2.32 2.32 0 01.47-.803c.205-.225.446-.402.735-.52.29-.13.602-.19.964-.19.361 0 .687.06.976.19.29.13.53.295.735.52.205.224.35.496.458.803.109.307.169.65.169 1.028zm-.603 0c0-.33-.048-.626-.132-.874a1.696 1.696 0 00-.362-.627 1.487 1.487 0 00-.554-.378 1.801 1.801 0 00-1.35 0 1.59 1.59 0 00-.554.378 1.695 1.695 0 00-.362.627 2.732 2.732 0 00-.132.874c0 .331.048.615.132.875.085.248.217.46.362.626.156.166.337.296.554.378.205.083.434.13.687.13a1.8 1.8 0 00.675-.13 1.52 1.52 0 00.542-.378c.157-.165.277-.378.362-.626.084-.26.132-.544.132-.875zm-6.29.461h-1.145v-.543h1.76v2.375a1.18 1.18 0 01-.23.083c-.096.023-.217.059-.35.082a4.043 4.043 0 01-.421.06c-.145.011-.29.023-.446.023-.422 0-.807-.059-1.133-.177a2.409 2.409 0 01-.82-.485 2.153 2.153 0 01-.505-.768c-.12-.295-.169-.638-.169-1.004 0-.402.06-.769.193-1.1.12-.33.313-.602.542-.838.241-.237.53-.414.868-.532.337-.13.71-.19 1.12-.19.109 0 .218 0 .326.012l.313.036a2.297 2.297 0 01.494.13v.52a4.22 4.22 0 00-.518-.118 3.188 3.188 0 00-.578-.047c-.29 0-.555.047-.808.13a2.04 2.04 0 00-.687.378c-.192.165-.35.39-.47.638-.12.26-.18.555-.18.91 0 .343.048.638.144.874.097.248.23.45.41.615.18.165.398.283.65.354.254.071.531.119.844.119.145 0 .29-.012.422-.024a2.75 2.75 0 00.374-.06v-1.453zm39.322-.579c.084.012.169.012.253.024.084 0 .169.012.253.012.29 0 .53-.024.735-.071.205-.048.362-.107.494-.19a.751.751 0 00.277-.307.91.91 0 00.085-.413.763.763 0 00-.145-.473 1 1 0 00-.397-.284 1.577 1.577 0 00-.374-.082 5.716 5.716 0 00-.482-.024h-.711v1.808h.012zm0 2.565H74.8v-4.905h1.386c.205 0 .398.012.579.036.18.023.337.059.482.118.301.106.53.26.675.472.156.213.228.473.228.769 0 .248-.048.472-.156.662a1.365 1.365 0 01-.434.472 1.96 1.96 0 01-.699.284 3.83 3.83 0 01-.94.094c-.169 0-.337-.011-.518-.023v2.02h.012zm-2.579-2.447c0 .367-.06.71-.169 1.028-.108.308-.265.58-.47.804a2.198 2.198 0 01-.735.532c-.289.13-.602.189-.964.189-.361 0-.687-.06-.988-.19a2.2 2.2 0 01-.735-.531 2.309 2.309 0 01-.458-.804 3.076 3.076 0 01-.157-1.028c0-.378.06-.72.169-1.028.109-.307.265-.579.47-.803.205-.225.446-.402.735-.52.29-.13.603-.19.964-.19.362 0 .687.06.976.19.29.13.53.295.735.52.205.224.35.496.458.803.12.307.17.65.17 1.028zm-.602 0c0-.33-.049-.626-.133-.874a1.695 1.695 0 00-.362-.627 1.486 1.486 0 00-.554-.378 1.802 1.802 0 00-1.35 0 1.59 1.59 0 00-.554.378 1.696 1.696 0 00-.362.627 2.73 2.73 0 00-.132.874c0 .331.048.615.132.875.085.248.217.46.362.626.157.166.337.296.554.378.205.083.434.13.687.13a1.8 1.8 0 00.675-.13 1.52 1.52 0 00.542-.378c.157-.165.278-.378.362-.626.084-.26.133-.544.133-.875zm-9.207-.33h2.615v-2.128h.614v4.905h-.614V94.66h-2.615v2.234h-.615v-4.905h.615v2.127zm-5.182-.828c0 .142.024.26.084.355a.76.76 0 00.241.236c.096.06.217.106.35.154.132.035.277.07.41.106.192.047.385.095.566.154.192.059.35.13.506.236.144.094.265.224.361.39.097.154.133.366.133.614 0 .26-.048.473-.145.662a1.14 1.14 0 01-.41.45c-.168.118-.373.2-.614.26a3.268 3.268 0 01-.771.082 4.492 4.492 0 01-.784-.083 2.801 2.801 0 01-.337-.094 1.576 1.576 0 01-.241-.107v-.543c.084.047.193.083.301.118a3 3 0 00.35.095 3.876 3.876 0 00.71.082c.17 0 .338-.011.495-.047.156-.035.301-.083.422-.142a.823.823 0 00.289-.283.858.858 0 00.108-.45.69.69 0 00-.096-.366.759.759 0 00-.241-.236 1.344 1.344 0 00-.35-.154c-.132-.035-.277-.07-.422-.106a7.85 7.85 0 01-.566-.154c-.18-.059-.35-.13-.494-.224a1.064 1.064 0 01-.35-.379 1.228 1.228 0 01-.132-.59 1.318 1.318 0 01.518-1.088c.157-.118.338-.2.555-.26a2.36 2.36 0 01.662-.082 3.34 3.34 0 011.386.272v.555a5.774 5.774 0 00-.639-.213 2.725 2.725 0 00-.71-.082c-.193 0-.35.023-.495.058a.812.812 0 00-.35.178.657.657 0 00-.204.272.606.606 0 00-.096.354zM4.073 94.447c0-.33-.048-.626-.132-.874a1.694 1.694 0 00-.362-.627 1.487 1.487 0 00-.554-.378 1.802 1.802 0 00-1.35 0 1.59 1.59 0 00-.554.378 1.694 1.694 0 00-.362.627 2.73 2.73 0 00-.132.874c0 .331.048.615.132.875.085.248.217.46.362.626.156.166.337.296.554.378.205.083.434.13.687.13a1.8 1.8 0 00.675-.13c.205-.082.385-.212.542-.378.157-.165.277-.378.362-.626.084-.26.132-.544.132-.875z" fill="#fff"/><path d="M71.335 74.642v4.845h1.59c.495 0 .917-.012 1.266-.048.35-.037.663-.097.94-.182.555-.169.989-.447 1.29-.821.301-.375.458-.87.458-1.474-.012-.568-.157-1.027-.434-1.378-.29-.35-.675-.592-1.181-.749a4.74 4.74 0 00-.856-.157 12.027 12.027 0 00-1.253-.048h-1.82v.012zm0 6.307v5.473H69.72V73.18h3.435c.578 0 1.073.024 1.482.06.41.049.772.11 1.109.206.928.254 1.627.676 2.121 1.28.494.605.735 1.366.735 2.26 0 .543-.084 1.015-.253 1.438-.169.422-.41.785-.723 1.1a3.776 3.776 0 01-1.109.76c-.433.206-.916.35-1.434.435v.036L79 86.41h-1.615l-4.074-5.473h-1.976v.012zm-10.714-5.715a125.485 125.485 0 01-1.7 4.507l-.506 1.256h4.423l-.506-1.269a124.65 124.65 0 01-1.663-4.494h-.048zm-6.062 11.2l5.375-13.254h1.398l5.4 13.254h-1.748l-1.555-3.975h-5.58l-1.555 3.975H54.56zm-9.268 0h-.747l-3.327-7.914a81.922 81.922 0 01-1.386-3.552h-.06a96.18 96.18 0 01.133 5.063v6.403h-1.615V73.18h2.326l3.11 7.503a80.05 80.05 0 011.18 3.093h.048c.47-1.341.868-2.38 1.182-3.093l3.109-7.503h2.326v13.254h-1.615V80.03c0-1.499.048-3.19.133-5.063h-.073a72.244 72.244 0 01-1.386 3.552l-3.338 7.914zM27.78 84.972h6.785v1.462h-8.412V73.18h8.026v1.462h-6.412v4.277h5.701v1.462h-5.7v4.591h.012zm-12.944-10.33v4.845h1.59c.495 0 .917-.012 1.266-.048.35-.037.663-.097.94-.182.555-.169.988-.447 1.29-.821.301-.375.458-.87.458-1.474-.012-.568-.157-1.027-.434-1.378-.29-.35-.675-.592-1.181-.749a4.743 4.743 0 00-.856-.157 12.027 12.027 0 00-1.253-.048h-1.82v.012zm0 6.307v5.473H13.22V73.18h3.435c.578 0 1.072.024 1.482.06.41.049.771.11 1.109.206.928.254 1.627.676 2.121 1.28.494.605.735 1.366.735 2.26 0 .543-.084 1.015-.253 1.438a3.23 3.23 0 01-.723 1.1 3.774 3.774 0 01-1.109.76c-.434.206-.916.35-1.434.435v.036L22.5 86.41h-1.615l-4.074-5.473h-1.976v.012zM0 86.434V73.18h1.615v6.548h.024l6.074-6.548h1.615l-6.17 6.597 6.532 6.657H8.075l-6.436-6.488h-.024v6.488H0z" fill="url(#paint0_linear)"/><path d="M57.325 53.256a4.331 4.331 0 01-1.275 2.745 4.36 4.36 0 01-3.08 1.29H28.768a4.339 4.339 0 01-3.08-1.29 4.381 4.381 0 01-1.286-3.088V37.866c.413-.272.814-.544 1.227-.816l.19-.13v15.993c0 .817.33 1.55.86 2.082a2.949 2.949 0 002.09.864H52.97a2.92 2.92 0 002.077-.864 2.9 2.9 0 00.85-1.798c.483.036.967.047 1.428.06zM52.026 5.844h.956c1.204 0 2.29.497 3.08 1.29a4.381 4.381 0 011.286 3.087v39.333c-.472-.048-.944-.095-1.416-.166V10.221a2.942 2.942 0 00-2.938-2.946h-1.286l.059-.225c.094-.39.177-.792.26-1.206zm-23.258 0h12.803c-.2.485-.389.97-.554 1.42H28.768a2.97 2.97 0 00-2.088.863 2.956 2.956 0 00-.862 2.082v22.026l-1.416.994V10.221a4.36 4.36 0 011.287-3.088 4.339 4.339 0 013.08-1.29z" fill="url(#paint1_linear)"/><path d="M42.421 17.176c.685-3.076 1.345-6.163 2.065-9.227.413-1.763.862-3.632 1.499-5.335.307-.84.72-1.846 1.593-2.224.932-.402 1.994-.047 2.466.875.59 1.16.342 3.23.106 4.46a21.664 21.664 0 01-1.923 5.702c-.92 1.857-2.1 3.679-3.34 5.335a32.29 32.29 0 01-2.076 2.496c-.154.166-.319.367-.579.26-.33-.142-.2-.556-.153-.816.106-.509.224-1.017.342-1.526zM0 59.56c.814-6.104 10.762-13.604 14.691-16.526 3.328-2.472 6.761-4.803 10.219-7.097 1.392-.923 2.796-1.846 4.189-2.769.991-.662 1.994-1.324 2.95-2.034.944-.698 1.9-1.408 2.867-2.082.26-.178.555-.402.838-.544.2-.095.508-.438.637-.367.118.059.071.509.083.733.012.225-.035.473-.083.698-.165.911-.389 1.822-.59 2.721-.908 3.904-1.9 7.784-2.796 11.688-.354 1.55-.626 3.04-.992 4.684-.13.556-.188.473.343.52.944.083 1.616.083 2.808.13.024-.023.036-.047.047-.059.496-.603 1.039-2.01 1.322-2.709 1.192-2.945 2.254-5.926 3.505-8.86.578-1.348 1.026-2.318 1.71-3.537.225-.39.484-.852.85-1.467.366-.615.826-1.384 1.322-2.14.495-.758 1.026-1.491 1.534-2.047.779-.852 3.599-3.1 4.342-1.444.342.758.036 1.964-.236 2.698-.448 1.23-1.203 2.448-2.03 3.454a16.784 16.784 0 01-3.256 2.945c-.932.651-1.9 1.183-2.891 1.716-.413.224-.425.154-.413.591.047.958.13 1.94.212 2.898.2 2.319.991 4.436 2.596 6.14 4.26 4.542 12.803 4.708 18.55 4.306 4.637-.331 9.322-1.136 13.853-2.189.885-.213 1.782-.425 2.667-.65-1.015.142-2.018.295-3.02.437-2.644.39-5.276.805-7.93 1.112-9.806 1.136-22.22 1.349-24.863-10.658-.165-.733-.213-1.017-.142-1.147.047-.083 1.629-.982 1.983-1.314.436-.39.85-.804 1.227-1.23a18.367 18.367 0 002.501-3.43c.685-1.219 1.428-2.863 1.652-4.223.118-.687.118-1.597-.53-2.035-1.228-.816-3.635.863-4.508 1.822-.52.567-1.062 1.325-1.57 2.082a59.806 59.806 0 00-1.333 2.153c-.366.627-.637 1.088-.85 1.466-1.416 2.52-2.796 6.27-3.929 9.097-.26.65-.52 1.29-.779 1.94-.047.107-.082.201-.13.308-.082.166-.224.296-.424.236a.4.4 0 01-.166-.106c-.165-.19-.047-.58-.011-.793a95.93 95.93 0 01.601-3.205c.92-4.756 1.853-9.535 2.868-14.255.248-1.136.566-2.957 1.215-3.927.236-.343.52-.663.79-.982a53.939 53.939 0 004.803-6.613c1.64-2.661 3.363-5.974 4.178-8.978.46-1.716.755-4.034-.319-5.584-.873-1.254-2.195-1.455-3.47-.615-2.206 1.443-3.846 5.489-4.672 7.878-1.522 4.425-2.43 9.05-3.575 13.593-.826 3.312-1.251 3.513-3.93 5.547a280.133 280.133 0 01-13.381 9.547c-5.168 3.43-10.36 7.393-14.656 11.912C4.201 51.4 1.463 54.711.342 57.87A6.728 6.728 0 000 59.561z" fill="url(#paint2_linear)"/><defs><linearGradient id="paint0_linear" x1="0" y1="79.806" x2="78.963" y2="79.806" gradientUnits="userSpaceOnUse"><stop stop-color="#B98327"/><stop offset=".33" stop-color="#F7E05A"/><stop offset=".52" stop-color="#F7E68B"/><stop offset=".66" stop-color="#F7E05A"/><stop offset="1" stop-color="#B98327"/></linearGradient><linearGradient id="paint1_linear" x1="24.895" y1="6.203" x2="56.583" y2="56.259" gradientUnits="userSpaceOnUse"><stop stop-color="#B98327"/><stop offset=".33" stop-color="#F7E05A"/><stop offset=".52" stop-color="#F7E68B"/><stop offset=".66" stop-color="#F7E05A"/><stop offset="1" stop-color="#B98327"/></linearGradient><linearGradient id="paint2_linear" x1="0" y1="29.781" x2="78.851" y2="29.781" gradientUnits="userSpaceOnUse"><stop stop-color="#B98327"/><stop offset=".33" stop-color="#F7E05A"/><stop offset=".52" stop-color="#F7E68B"/><stop offset=".66" stop-color="#F7E05A"/><stop offset="1" stop-color="#B98327"/></linearGradient></defs></svg>