<svg width="12" height="13" fill="none" xmlns="http://www.w3.org/2000/svg"><path d="M3.54.926h4.92c.949.018 1.742.346 2.38.984.638.638.966 1.431.984 2.38v4.92c-.018.949-.346 1.742-.984 2.38-.638.638-1.431.966-2.38.984H3.54c-.949-.018-1.742-.346-2.38-.984-.638-.638-.966-1.431-.984-2.38V4.29c.018-.949.346-1.742.984-2.38.638-.638 1.431-.966 2.38-.984zm-.11 1.148c-.602.018-1.103.228-1.504.63-.383.382-.584.874-.602 1.476v5.14c.018.602.219 1.103.602 1.504.4.383.902.584 1.504.602h5.14c.602-.018 1.094-.219 1.477-.602.4-.4.61-.902.629-1.504V4.18c-.018-.602-.228-1.094-.63-1.477-.382-.4-.874-.61-1.476-.629H3.43zm5.633.875c.2.018.364.1.492.246a.624.624 0 01.218.493.71.71 0 01-.218.519.666.666 0 01-.492.191.763.763 0 01-.52-.191.763.763 0 01-.191-.52c0-.2.063-.364.191-.492a.82.82 0 01.52-.246zM6 3.824c.82.018 1.504.31 2.05.875.566.547.858 1.23.876 2.051-.018.82-.31 1.513-.875 2.078-.547.547-1.23.83-2.051.848-.82-.018-1.513-.301-2.078-.848-.547-.565-.83-1.258-.848-2.078.018-.82.301-1.504.848-2.05.565-.566 1.258-.858 2.078-.876zM6 5c-.492.018-.902.191-1.23.52-.329.328-.493.738-.493 1.23s.164.902.493 1.23c.328.329.738.493 1.23.493s.902-.164 1.23-.493c.329-.328.493-.738.493-1.23s-.164-.902-.493-1.23C6.902 5.19 6.492 5.018 6 5z" fill="#fff"/></svg>