<svg width="12" height="11" fill="none" xmlns="http://www.w3.org/2000/svg"><path d="M11.25 11H8.926V7.062c-.018-.31-.164-.574-.438-.792a1.306 1.306 0 00-.875-.329c-.328 0-.583.11-.765.329a1.43 1.43 0 00-.274.793V11H4.25V4h2.324v1.176a2.16 2.16 0 01.93-.766c.401-.182.775-.273 1.121-.273.747.018 1.367.282 1.86.793.492.492.747 1.103.765 1.832V11zm-8.176 0H.75V4h2.324v7zM1.926.5c.328 0 .601.118.82.355.219.22.328.493.328.82 0 .329-.11.602-.328.821a1.113 1.113 0 01-.82.328c-.328 0-.61-.11-.848-.328a1.113 1.113 0 01-.328-.82c0-.328.11-.602.328-.82.237-.238.52-.356.848-.356z" fill="#fff"/></svg>