<svg width="167" height="70" fill="none" xmlns="http://www.w3.org/2000/svg"><g clip-path="url(#clip0)"><path fill-rule="evenodd" clip-rule="evenodd" d="M106.963 50.355h2.958v.64h-3.667v-5.77h3.501v.64h-2.792v1.863h2.486v.64h-2.486v1.987zm-4.682-1.918c.348.514.695 1.029 1.042 1.571h.028a22.759 22.759 0 01-.056-1.71v-3.073h.709v5.77h-.709l-2.264-3.212a38.126 38.126 0 01-1.042-1.57h-.028c.042.528.056 1.14.056 1.835v2.947h-.694v-5.77h.694l2.264 3.212zm-5.931 2.558v-5.77h.708v5.77h-.708zm-4.682-5.77v5.13h2.82v.64h-3.514v-5.77h.694zm-4.68 3.212c.346.514.694 1.029 1.04 1.571h.029a22.977 22.977 0 01-.056-1.71v-3.073h.709v5.77H88l-2.264-3.212a38.032 38.032 0 01-1.042-1.57h-.028c.042.528.056 1.14.056 1.835v2.947h-.709v-5.77h.695l2.278 3.212zm-5.043-.32c0 .431-.07.834-.195 1.21a2.759 2.759 0 01-.542.945 2.539 2.539 0 01-.847.626 2.602 2.602 0 01-1.111.222 2.73 2.73 0 01-1.14-.222 2.537 2.537 0 01-.847-.626 2.73 2.73 0 01-.528-.945 3.686 3.686 0 01-.18-1.21c0-.445.07-.848.194-1.21.125-.36.306-.68.542-.945.236-.264.514-.472.847-.611a2.602 2.602 0 011.112-.223c.416 0 .791.07 1.125.223.333.153.611.347.847.611s.403.584.528.946c.125.361.195.764.195 1.21zm55.342-.028c0-.556-.125-1-.361-1.348-.25-.348-.597-.584-1.056-.737a2.548 2.548 0 00-.583-.111 11.238 11.238 0 00-.723-.028h-.541v4.49h.541c.264 0 .514-.013.723-.027.208-.014.403-.056.583-.111.459-.14.806-.39 1.056-.751.25-.362.361-.82.361-1.377zm.709 0c0 .334-.042.654-.125.946a2.859 2.859 0 01-.376.806 2.37 2.37 0 01-.625.612 3.16 3.16 0 01-1.5.514c-.222.028-.472.028-.722.028h-1.306v-5.77h1.32c.264 0 .5.014.722.028.222.028.431.056.625.111.334.098.625.223.875.39s.459.375.625.598c.167.236.292.486.375.778.07.306.112.626.112.96zm-9.224-2.864v5.13h2.82v.64h-3.515v-5.77h.695zm-2.667 2.892c0 .431-.07.834-.195 1.21a2.745 2.745 0 01-.542.945 2.529 2.529 0 01-.847.626 2.598 2.598 0 01-1.111.222c-.417 0-.806-.07-1.139-.222a2.543 2.543 0 01-.848-.626 2.73 2.73 0 01-.527-.945 3.66 3.66 0 01-.181-1.21c0-.445.069-.848.194-1.21a2.76 2.76 0 01.542-.945c.236-.264.514-.472.848-.611a2.598 2.598 0 011.111-.223c.417 0 .792.07 1.125.223.333.153.611.347.847.611.237.264.403.584.528.946.125.361.195.764.195 1.21zm-.695 0c0-.39-.055-.737-.153-1.029a2.006 2.006 0 00-.416-.736 1.715 1.715 0 00-.639-.445 2.044 2.044 0 00-1.556 0c-.236.097-.459.25-.639.445-.181.194-.32.444-.417.736a3.28 3.28 0 00-.153 1.03c0 .389.056.722.153 1.028.097.292.25.542.417.737.18.194.389.347.639.445.236.097.5.153.792.153.277 0 .541-.056.778-.153a1.79 1.79 0 00.625-.445 2.01 2.01 0 00.416-.737c.098-.306.153-.64.153-1.029zm-7.251.542h-1.32v-.64h2.028v2.795a1.31 1.31 0 01-.264.098c-.111.027-.25.07-.402.097a6.013 6.013 0 01-1.001.097c-.486 0-.93-.07-1.305-.208a2.767 2.767 0 01-.945-.57 2.537 2.537 0 01-.583-.904c-.139-.347-.195-.75-.195-1.182 0-.472.07-.903.222-1.293a2.79 2.79 0 01.626-.987 2.648 2.648 0 011-.625 3.499 3.499 0 011.292-.223c.125 0 .25 0 .375.014s.25.028.361.042c.111.014.222.041.319.07.098.027.181.055.25.083v.611a4.776 4.776 0 00-.597-.139 3.594 3.594 0 00-.667-.055c-.333 0-.639.055-.93.153a2.32 2.32 0 00-.792.445 2.308 2.308 0 00-.542.75c-.139.306-.208.654-.208 1.07 0 .404.055.752.166 1.03.111.292.264.528.473.723.208.194.458.333.75.417a3.5 3.5 0 00.972.139c.167 0 .334-.014.486-.028.167-.014.306-.042.431-.07v-1.71zm45.327-.68c.097.013.194.013.292.027.097 0 .194.014.291.014.334 0 .612-.028.848-.084.236-.055.416-.125.569-.222a.88.88 0 00.32-.361c.069-.14.097-.306.097-.487a.912.912 0 00-.167-.556 1.156 1.156 0 00-.458-.334 1.79 1.79 0 00-.431-.097 6.423 6.423 0 00-.555-.028h-.82v2.127h.014zm0 3.016h-.709v-5.77h1.598c.236 0 .458.014.667.042.208.028.389.07.555.14.348.124.612.305.778.555.181.25.264.556.264.904 0 .292-.055.556-.18.779a1.594 1.594 0 01-.5.556 2.246 2.246 0 01-.806.333c-.32.084-.681.111-1.084.111-.194 0-.389-.013-.597-.027v2.377h.014zm-2.973-2.878c0 .431-.069.834-.194 1.21a2.76 2.76 0 01-.542.945 2.539 2.539 0 01-.847.626 2.606 2.606 0 01-1.112.222 2.78 2.78 0 01-1.139-.222 2.539 2.539 0 01-.847-.626 2.733 2.733 0 01-.528-.945 3.686 3.686 0 01-.181-1.21c0-.445.07-.848.195-1.21a2.76 2.76 0 01.542-.945c.236-.264.514-.472.847-.611a2.601 2.601 0 011.111-.223c.417 0 .792.07 1.125.223.334.153.612.347.848.611s.403.584.528.946c.139.361.194.764.194 1.21zm-.694 0c0-.39-.056-.737-.153-1.029a1.993 1.993 0 00-.417-.736 1.707 1.707 0 00-.639-.445 2.04 2.04 0 00-1.556 0c-.236.097-.458.25-.639.445-.18.194-.319.444-.416.736-.098.292-.153.64-.153 1.03 0 .389.055.722.153 1.028.097.292.25.542.416.737.181.194.389.347.639.445.236.097.5.153.792.153.278 0 .542-.056.778-.153a1.78 1.78 0 00.625-.445c.181-.195.32-.445.417-.737.097-.306.153-.64.153-1.029zm-10.613-.39h3.014v-2.502h.709v5.77h-.709v-2.628h-3.014v2.628h-.709v-5.77h.709v2.503zm-5.973-.972c0 .167.027.306.097.417a.873.873 0 00.278.278c.111.07.25.125.402.18.153.042.32.084.473.126.222.055.444.11.653.18.222.07.402.153.583.279.167.11.306.264.417.458.111.181.153.431.153.723 0 .306-.056.556-.167.779-.111.222-.264.39-.472.528a2.071 2.071 0 01-.709.306 3.63 3.63 0 01-.889.097c-.153 0-.305-.014-.458-.028a4.256 4.256 0 01-.445-.069c-.139-.028-.264-.07-.389-.111a1.829 1.829 0 01-.278-.125v-.64c.098.056.223.097.348.14a4.276 4.276 0 00.819.18c.139.014.278.028.403.028.195 0 .389-.014.57-.056.18-.042.347-.097.486-.167a.953.953 0 00.333-.334 1.02 1.02 0 00.125-.528.82.82 0 00-.111-.43.88.88 0 00-.278-.279 1.533 1.533 0 00-.403-.18c-.152-.042-.319-.084-.486-.126a8.54 8.54 0 01-.653-.18 2.39 2.39 0 01-.569-.264 1.238 1.238 0 01-.403-.445 1.474 1.474 0 01-.153-.696 1.578 1.578 0 01.598-1.279c.18-.139.388-.236.639-.306.236-.069.486-.097.764-.097a3.798 3.798 0 011.597.32v.653a6.54 6.54 0 00-.736-.25 3.08 3.08 0 00-.82-.097c-.222 0-.403.028-.569.07a.927.927 0 00-.403.208.767.767 0 00-.236.32.72.72 0 00-.111.417zM81.25 48.117c0-.39-.055-.737-.153-1.029a2.001 2.001 0 00-.416-.736 1.712 1.712 0 00-.64-.445 2.04 2.04 0 00-1.555 0 1.83 1.83 0 00-.64.445c-.18.194-.319.444-.416.736-.097.292-.153.64-.153 1.03 0 .389.056.722.153 1.028.097.292.25.542.417.737.18.194.389.347.639.445.236.097.5.153.791.153.278 0 .542-.056.778-.153a1.78 1.78 0 00.625-.445c.181-.195.32-.445.417-.737.098-.306.153-.64.153-1.029z" fill="#000"/><path d="M158.207 24.983v5.575h1.833c.57 0 1.056-.014 1.459-.055a5.78 5.78 0 001.084-.209c.639-.195 1.139-.514 1.486-.945.347-.431.528-1.001.528-1.697-.014-.653-.181-1.181-.5-1.585-.334-.403-.778-.68-1.362-.861a5.468 5.468 0 00-.986-.181 13.871 13.871 0 00-1.445-.056h-2.097v.014zm0 7.257v6.298h-1.862V23.301h3.959c.667 0 1.237.028 1.709.07.472.055.889.125 1.278.236 1.07.292 1.875.778 2.445 1.473.569.696.847 1.572.847 2.6 0 .626-.097 1.168-.292 1.655a3.71 3.71 0 01-.833 1.265 4.352 4.352 0 01-1.278.876c-.5.236-1.056.403-1.653.5v.042l4.515 6.506h-1.862l-4.695-6.298h-2.278v.014zm-12.35-6.576a143.354 143.354 0 01-1.958 5.186l-.584 1.446h5.098l-.583-1.46a143.933 143.933 0 01-1.917-5.172h-.056zm-6.987 12.888l6.196-15.251h1.611l6.223 15.251h-2.014l-1.792-4.574h-6.431l-1.792 4.574h-2.001zm-10.682 0h-.861l-3.834-9.106a94.384 94.384 0 01-1.598-4.088h-.069c.111 2.128.153 4.06.153 5.826v7.368h-1.862V23.301h2.681l3.584 8.634a90.03 90.03 0 011.361 3.559h.056c.542-1.544 1-2.74 1.361-3.56l3.584-8.633h2.681v15.251h-1.861v-7.368c0-1.724.055-3.67.153-5.826h-.084a82.578 82.578 0 01-1.597 4.088l-3.848 9.106zm-20.184-1.682h7.821v1.682h-9.696V23.301h9.251v1.682h-7.39v4.922h6.571v1.682h-6.571v5.283h.014zm-14.92-11.887v5.575h1.834c.57 0 1.056-.014 1.459-.055a5.768 5.768 0 001.084-.209c.639-.195 1.139-.514 1.486-.945.347-.431.528-1.001.528-1.697-.014-.653-.18-1.181-.5-1.585-.334-.403-.778-.68-1.362-.861a5.468 5.468 0 00-.986-.181 13.87 13.87 0 00-1.445-.056h-2.097v.014zm0 7.257v6.298h-1.86V23.301h3.958c.667 0 1.237.028 1.709.07.472.055.889.125 1.278.236 1.07.292 1.875.778 2.445 1.473.569.696.847 1.572.847 2.6 0 .626-.097 1.168-.292 1.655a3.71 3.71 0 01-.833 1.265 4.352 4.352 0 01-1.278.876c-.5.236-1.056.403-1.653.5v.042l4.515 6.506h-1.862l-4.695-6.298h-2.278v.014zm-17.1 6.312V23.301h1.862v7.535h.028l7.001-7.535h1.862l-7.113 7.59 7.53 7.661h-1.862l-7.418-7.466h-.028v7.466h-1.861z" fill="url(#paint0_linear)"/><path d="M34.02 67.33h28.185a5.293 5.293 0 005.292-5.296v-49.87a5.293 5.293 0 00-5.292-5.296H34.02a5.293 5.293 0 00-5.293 5.297v49.869a5.293 5.293 0 005.293 5.297z" fill="url(#paint1_linear)"/><path d="M67.483 62.59a5.087 5.087 0 01-1.5 3.225 5.136 5.136 0 01-3.625 1.516H33.867a5.111 5.111 0 01-3.626-1.516 5.145 5.145 0 01-1.514-3.628V44.503c.486-.32.959-.64 1.445-.96l.222-.153v18.797c0 .959.389 1.82 1.014 2.447a3.474 3.474 0 002.459 1.014h28.49c.959 0 1.82-.389 2.445-1.014a3.402 3.402 0 001-2.114c.57.042 1.14.056 1.681.07zM61.246 6.868h1.125c1.417 0 2.695.584 3.626 1.515a5.144 5.144 0 011.514 3.629v46.226a34.009 34.009 0 01-1.667-.194V12.012a3.466 3.466 0 00-3.459-3.462h-1.514l.07-.264c.11-.459.208-.931.305-1.418zm-27.38 0H48.94c-.236.57-.459 1.14-.653 1.668h-14.42a3.5 3.5 0 00-2.458 1.015 3.472 3.472 0 00-1.014 2.447v25.887l-1.667 1.168V12.012a5.12 5.12 0 011.514-3.629 5.111 5.111 0 013.626-1.515z" fill="url(#paint2_linear)"/><path d="M49.939 20.187c.806-3.615 1.584-7.244 2.43-10.844.487-2.072 1.015-4.269 1.765-6.27.361-.988.847-2.17 1.875-2.614 1.098-.473 2.348-.056 2.904 1.029.694 1.362.402 3.795.125 5.24a25.428 25.428 0 01-2.265 6.702c-1.083 2.183-2.472 4.324-3.93 6.27a37.98 37.98 0 01-2.446 2.934c-.18.194-.375.43-.68.305-.39-.166-.236-.653-.181-.959.125-.598.264-1.195.403-1.793zM0 70c.958-7.174 12.669-15.988 17.294-19.422 3.918-2.906 7.96-5.645 12.03-8.342 1.64-1.084 3.293-2.168 4.932-3.253 1.167-.778 2.347-1.557 3.472-2.391 1.112-.82 2.237-1.655 3.376-2.447.306-.209.653-.473.986-.64.236-.11.598-.514.75-.43.14.069.084.597.098.861.014.265-.042.557-.098.82-.194 1.071-.458 2.142-.694 3.198-1.07 4.588-2.237 9.148-3.292 13.736-.417 1.821-.736 3.573-1.167 5.506-.153.653-.222.556.403.611 1.111.098 1.903.098 3.306.153.028-.028.041-.055.055-.07.584-.708 1.223-2.363 1.556-3.183 1.403-3.462 2.653-6.965 4.126-10.413.68-1.585 1.208-2.725 2.014-4.157.264-.459.57-1 1-1.724a67.93 67.93 0 011.556-2.516c.583-.89 1.209-1.752 1.806-2.405.917-1.001 4.237-3.643 5.112-1.697.403.89.041 2.308-.278 3.17-.528 1.446-1.417 2.878-2.39 4.06-1.097 1.307-2.43 2.488-3.833 3.462-1.098.764-2.237 1.39-3.404 2.015-.486.265-.5.181-.486.696.056 1.126.153 2.28.25 3.406.236 2.725 1.167 5.213 3.056 7.215 5.015 5.339 15.072 5.533 21.837 5.06 5.46-.388 10.974-1.334 16.309-2.571 1.041-.25 2.097-.5 3.139-.765-1.195.167-2.375.348-3.556.515-3.112.458-6.21.945-9.335 1.306C68.386 60.7 53.773 60.95 50.661 46.838c-.194-.862-.25-1.196-.166-1.348.055-.098 1.916-1.154 2.333-1.544.514-.458 1-.945 1.445-1.445a21.582 21.582 0 002.945-4.032c.805-1.432 1.68-3.365 1.945-4.964.139-.806.139-1.876-.625-2.39-1.445-.96-4.279 1.014-5.307 2.14-.611.668-1.25 1.557-1.848 2.447a70.443 70.443 0 00-1.57 2.53c-.43.737-.75 1.28-1 1.724-1.666 2.962-3.291 7.369-4.625 10.691-.306.765-.611 1.516-.917 2.28-.056.126-.097.237-.153.362-.097.195-.264.347-.5.278a.472.472 0 01-.194-.125c-.195-.223-.056-.681-.014-.932.208-1.265.458-2.516.708-3.767 1.084-5.59 2.181-11.206 3.376-16.753.292-1.335.667-3.476 1.43-4.616.279-.403.612-.778.931-1.153a63.423 63.423 0 005.654-7.772c1.93-3.128 3.96-7.021 4.917-10.552.542-2.016.89-4.741-.375-6.562-1.028-1.474-2.583-1.71-4.084-.723-2.597 1.696-4.528 6.45-5.5 9.259-1.792 5.2-2.862 10.635-4.21 15.974-.972 3.893-1.472 4.13-4.625 6.52a329.858 329.858 0 01-15.753 11.22c-6.084 4.032-12.196 8.69-17.253 14C4.946 60.407 1.723 64.3.403 68.012A7.896 7.896 0 000 70z" fill="url(#paint3_linear)"/></g><defs><linearGradient id="paint0_linear" x1="75.984" y1="30.926" x2="166.998" y2="30.926" gradientUnits="userSpaceOnUse"><stop stop-color="#B98327"/><stop offset=".33" stop-color="#F7E05A"/><stop offset=".52" stop-color="#F7E68B"/><stop offset=".66" stop-color="#F7E05A"/><stop offset="1" stop-color="#B98327"/></linearGradient><linearGradient id="paint1_linear" x1="46.59" y1="70.925" x2="48.31" y2="32.879" gradientUnits="userSpaceOnUse"><stop/><stop offset="1" stop-color="#27376D"/></linearGradient><linearGradient id="paint2_linear" x1="29.307" y1="7.29" x2="66.522" y2="66.175" gradientUnits="userSpaceOnUse"><stop stop-color="#B98327"/><stop offset=".33" stop-color="#F7E05A"/><stop offset=".52" stop-color="#F7E68B"/><stop offset=".66" stop-color="#F7E05A"/><stop offset="1" stop-color="#B98327"/></linearGradient><linearGradient id="paint3_linear" x1="0" y1="35.001" x2="92.825" y2="35.001" gradientUnits="userSpaceOnUse"><stop stop-color="#B98327"/><stop offset=".33" stop-color="#F7E05A"/><stop offset=".52" stop-color="#F7E68B"/><stop offset=".66" stop-color="#F7E05A"/><stop offset="1" stop-color="#B98327"/></linearGradient><clipPath id="clip0"><path fill="#fff" d="M0 0h167v70H0z"/></clipPath></defs></svg>