<svg width="12" height="11" fill="none" xmlns="http://www.w3.org/2000/svg"><path d="M2.855 5.04A9.497 9.497 0 004.47 7.28a9.497 9.497 0 002.24 1.615l1.285-1.286c.182-.164.383-.21.602-.136a6.528 6.528 0 002.078.328c.164 0 .3.054.41.164.11.11.164.246.164.41v2.05a.554.554 0 01-.164.41.556.556 0 01-.41.165c-2.808-.073-5.15-1.04-7.028-2.898C1.79 6.224.823 3.882.75 1.074c0-.164.055-.3.164-.41A.557.557 0 011.324.5h2.051a.559.559 0 01.574.574c0 .73.11 1.422.328 2.078.073.22.028.42-.136.602L2.855 5.039z" fill="#fff"/></svg>