<svg width="73" height="73" fill="none" xmlns="http://www.w3.org/2000/svg"><path d="M18.784 41.316l-.845-1.86a1.127 1.127 0 00-1.024-.66h-.642a1.125 1.125 0 00-.76 1.955l5.168 4.737-1.896-4.17v-.002z" fill="url(#paint0_linear)"/><path d="M54.244 38.796h-1.92a1.125 1.125 0 00-.987.586l-6.111 11.203a1.123 1.123 0 01-.715.552l-4.5 1.125c-.23.058-.47.041-.69-.047l-11.25-4.5a1.125 1.125 0 01-.589-.54l-3.878-7.757a1.119 1.119 0 00-1.006-.622h-.74a1.125 1.125 0 00-1.025 1.59l4.078 8.97 16.372 14.19h7.455v-2.25a1.124 1.124 0 01.33-.796l.932-.93a3.354 3.354 0 00.988-2.387v-7.136c0-.16.035-.32.101-.466l4.18-9.194a1.126 1.126 0 00-1.025-1.59z" fill="url(#paint1_linear)"/><path d="M38.613 65.796h11.25v2.25h-11.25v-2.25z" fill="url(#paint2_linear)"/><path d="M61.113 30.92c0-11.785-9.588-21.374-21.375-21.374h-6.75c-11.786 0-21.375 9.589-21.375 21.375v1.125h49.5V30.92z" fill="url(#paint3_linear)"/><path d="M7.113 36.546h58.5a1.126 1.126 0 001.125-1.125v-1.125H5.988v1.125a1.126 1.126 0 001.125 1.125z" fill="url(#paint4_linear)"/><path d="M40.863 2.796h-9a1.125 1.125 0 100 2.25h2.25v2.25h4.5v-2.25h2.25a1.125 1.125 0 000-2.25z" fill="url(#paint5_linear)"/><defs><linearGradient id="paint0_linear" x1="15.148" y1="38.796" x2="21.721" y2="44.231" gradientUnits="userSpaceOnUse"><stop offset="0" stop-color="#B2843B"/><stop offset=".383" stop-color="#EAD267"/><stop offset=".503" stop-color="#F4E38F"/><stop offset=".621" stop-color="#EAD267"/><stop offset="1" stop-color="#B2843B"/></linearGradient><linearGradient id="paint1_linear" x1="20.732" y1="38.796" x2="44.148" y2="71.564" gradientUnits="userSpaceOnUse"><stop offset="0" stop-color="#B2843B"/><stop offset=".383" stop-color="#EAD267"/><stop offset=".503" stop-color="#F4E38F"/><stop offset=".621" stop-color="#EAD267"/><stop offset="1" stop-color="#B2843B"/></linearGradient><linearGradient id="paint2_linear" x1="38.613" y1="65.796" x2="39.479" y2="70.123" gradientUnits="userSpaceOnUse"><stop offset="0" stop-color="#B2843B"/><stop offset=".383" stop-color="#EAD267"/><stop offset=".503" stop-color="#F4E38F"/><stop offset=".621" stop-color="#EAD267"/><stop offset="1" stop-color="#B2843B"/></linearGradient><linearGradient id="paint3_linear" x1="11.613" y1="9.546" x2="28.565" y2="46.84" gradientUnits="userSpaceOnUse"><stop offset="0" stop-color="#B2843B"/><stop offset=".383" stop-color="#EAD267"/><stop offset=".503" stop-color="#F4E38F"/><stop offset=".621" stop-color="#EAD267"/><stop offset="1" stop-color="#B2843B"/></linearGradient><linearGradient id="paint4_linear" x1="5.988" y1="34.296" x2="6.155" y2="38.79" gradientUnits="userSpaceOnUse"><stop offset="0" stop-color="#B2843B"/><stop offset=".383" stop-color="#EAD267"/><stop offset=".503" stop-color="#F4E38F"/><stop offset=".621" stop-color="#EAD267"/><stop offset="1" stop-color="#B2843B"/></linearGradient><linearGradient id="paint5_linear" x1="30.738" y1="2.796" x2="33.842" y2="10.555" gradientUnits="userSpaceOnUse"><stop offset="0" stop-color="#B2843B"/><stop offset=".383" stop-color="#EAD267"/><stop offset=".503" stop-color="#F4E38F"/><stop offset=".621" stop-color="#EAD267"/><stop offset="1" stop-color="#B2843B"/></linearGradient></defs></svg>