<svg width="16" height="16" fill="none" xmlns="http://www.w3.org/2000/svg"><path d="M14.4 13.83l-.916-10.316a.44.44 0 00-.438-.402H11.16A3.163 3.163 0 008 0a3.163 3.163 0 00-3.162 3.112H2.955a.439.439 0 00-.439.402L1.6 13.831l-.003.039c0 1.175 1.076 2.13 2.402 2.13h8.003c1.325 0 2.401-.955 2.401-2.13 0-.013 0-.026-.003-.04zM8 .884a2.28 2.28 0 012.277 2.229H5.723A2.28 2.28 0 018 .883zm4.002 14.234H3.999c-.832 0-1.506-.55-1.519-1.227l.877-9.892h1.48V5.34a.44.44 0 00.44.442.44.44 0 00.443-.442V3.998h4.558V5.34a.44.44 0 00.441.442.44.44 0 00.442-.442V3.998h1.479l.88 9.892c-.013.677-.69 1.227-1.518 1.227z" fill="#000"/></svg>