<svg width="16" height="16" fill="none" xmlns="http://www.w3.org/2000/svg"><path d="M11.727 8.066c-.24.262-.509.503-.818.721 1.765.877 2.956 2.526 2.956 4.412 0 1.02-2.576 1.817-5.865 1.817s-5.865-.798-5.865-1.817c0-1.886 1.191-3.535 2.956-4.412a5.048 5.048 0 01-.818-.72C2.308 9.141 1 11.04 1 13.198c0 .654.413 1.565 2.382 2.194C4.61 15.784 6.25 16 8 16c1.75 0 3.39-.216 4.619-.607 1.968-.629 2.381-1.54 2.381-2.194 0-2.159-1.308-4.057-3.273-5.133z" fill="#000"/><path d="M8 8.067c2.206 0 3.905-1.848 3.905-4.034S10.205 0 8 0C5.794 0 4.095 1.848 4.095 4.033c0 2.186 1.7 4.034 3.905 4.034zM8 .984c1.527 0 2.77 1.368 2.77 3.05 0 1.68-1.243 3.049-2.77 3.049s-2.77-1.368-2.77-3.05C5.23 2.352 6.473.983 8 .983z" fill="#000"/></svg>