<svg width="12" height="10" fill="none" xmlns="http://www.w3.org/2000/svg"><path d="M4.824 7.375v-5.25l3.5 2.625-3.5 2.625zM10.676.32C10.457.266 9.9.21 9.008.156A49.64 49.64 0 006 .074a49.64 49.64 0 00-3.008.082C2.1.193 1.543.238 1.324.293c-.437.2-.747.72-.93 1.559C.23 2.69.149 3.656.149 4.75c0 1.076.082 2.042.247 2.898.182.839.492 1.35.93 1.532.218.073.774.136 1.667.191A74.4 74.4 0 006 9.426a74.4 74.4 0 003.008-.055c.893-.055 1.449-.118 1.668-.191.437-.183.738-.693.902-1.532.182-.856.274-1.822.274-2.898 0-1.094-.092-2.06-.274-2.898-.164-.839-.465-1.35-.902-1.532z" fill="#fff"/></svg>